<mxfile host="app.diagrams.net" modified="2024-03-25T10:30:38.694Z" agent="Mozilla/5.0 (Macintosh; Intel Mac OS X 10_15_7) AppleWebKit/537.36 (KHTML, like Gecko) Chrome/121.0.0.0 Safari/537.36" etag="0DGRq77c9ziPZiR8j9MR" version="24.1.0" type="github">
  <diagram name="第 1 页" id="FuL7fIm7VwNtuR7pSenR">
    <mxGraphModel dx="1247" dy="1826" grid="1" gridSize="10" guides="1" tooltips="1" connect="1" arrows="1" fold="1" page="1" pageScale="1" pageWidth="827" pageHeight="1169" math="0" shadow="0">
      <root>
        <mxCell id="0" />
        <mxCell id="1" parent="0" />
        <mxCell id="yxHjGUX9_2zawr6rAn5c-2" value="" style="rounded=0;whiteSpace=wrap;html=1;fillColor=#FFF4C3;" parent="1" vertex="1">
          <mxGeometry x="1060" y="115" width="91" height="50" as="geometry" />
        </mxCell>
        <mxCell id="yxHjGUX9_2zawr6rAn5c-3" value="" style="rounded=0;whiteSpace=wrap;html=1;fillColor=#FFF4C3;" parent="1" vertex="1">
          <mxGeometry x="840" y="115" width="80" height="60" as="geometry" />
        </mxCell>
        <mxCell id="yxHjGUX9_2zawr6rAn5c-4" value="" style="rounded=0;whiteSpace=wrap;html=1;fillColor=#FFF4C3;" parent="1" vertex="1">
          <mxGeometry x="100" y="115" width="580" height="725" as="geometry" />
        </mxCell>
        <mxCell id="yxHjGUX9_2zawr6rAn5c-5" value="oj题" style="text;html=1;align=center;verticalAlign=middle;whiteSpace=wrap;rounded=0;" parent="1" vertex="1">
          <mxGeometry x="360" y="125" width="60" height="30" as="geometry" />
        </mxCell>
        <mxCell id="yxHjGUX9_2zawr6rAn5c-11" value="选择题" style="text;html=1;align=center;verticalAlign=middle;whiteSpace=wrap;rounded=0;" parent="1" vertex="1">
          <mxGeometry x="1081" y="125" width="60" height="30" as="geometry" />
        </mxCell>
        <mxCell id="yxHjGUX9_2zawr6rAn5c-12" value="填空题" style="text;html=1;align=center;verticalAlign=middle;whiteSpace=wrap;rounded=0;" parent="1" vertex="1">
          <mxGeometry x="840" y="130" width="70" height="30" as="geometry" />
        </mxCell>
        <mxCell id="yxHjGUX9_2zawr6rAn5c-22" style="edgeStyle=orthogonalEdgeStyle;rounded=0;orthogonalLoop=1;jettySize=auto;html=1;exitX=0.5;exitY=1;exitDx=0;exitDy=0;" parent="1" source="yxHjGUX9_2zawr6rAn5c-12" target="yxHjGUX9_2zawr6rAn5c-12" edge="1">
          <mxGeometry relative="1" as="geometry" />
        </mxCell>
        <mxCell id="yxHjGUX9_2zawr6rAn5c-23" value="测试用例&lt;div&gt;&lt;div style=&quot;background-color: rgb(255, 255, 255); font-family: &amp;quot;JetBrains Mono&amp;quot;, monospace; font-size: 9.8pt; white-space: pre;&quot;&gt;&lt;span style=&quot;color:#000080;font-weight:bold;&quot;&gt;create table &lt;/span&gt;oj_sample&lt;br&gt;(&lt;br&gt;    &lt;span style=&quot;color:#660e7a;font-weight:bold;&quot;&gt;id&lt;br&gt;&lt;/span&gt;&lt;span style=&quot;color:#660e7a;font-weight:bold;&quot;&gt;    &lt;/span&gt;problem_id   &lt;span style=&quot;color:#000080;font-weight:bold;&quot;&gt;comment &lt;/span&gt;&lt;span style=&quot;color:#008000;font-weight:bold;&quot;&gt;&#39;&lt;/span&gt;&lt;span style=&quot;color:#008000;font-weight:bold;font-family:&#39;Menlo-Regular&#39;,monospace;&quot;&gt;问题&lt;/span&gt;&lt;span style=&quot;color:#008000;font-weight:bold;&quot;&gt;ID&#39;&lt;/span&gt;,&lt;br&gt;    &lt;span style=&quot;color:#660e7a;font-weight:bold;&quot;&gt;input        &lt;/span&gt;&lt;span style=&quot;color:#000080;font-weight:bold;&quot;&gt;comment &lt;/span&gt;&lt;span style=&quot;color:#008000;font-weight:bold;&quot;&gt;&#39;&lt;/span&gt;&lt;span style=&quot;color:#008000;font-weight:bold;font-family:&#39;Menlo-Regular&#39;,monospace;&quot;&gt;输入样例&lt;/span&gt;&lt;span style=&quot;color:#008000;font-weight:bold;&quot;&gt;&#39;&lt;/span&gt;,&lt;br&gt;    &lt;span style=&quot;color:#660e7a;font-weight:bold;&quot;&gt;output       &lt;/span&gt;&lt;span style=&quot;color:#000080;font-weight:bold;&quot;&gt;comment &lt;/span&gt;&lt;span style=&quot;color:#008000;font-weight:bold;&quot;&gt;&#39;&lt;/span&gt;&lt;span style=&quot;color:#008000;font-weight:bold;font-family:&#39;Menlo-Regular&#39;,monospace;&quot;&gt;输出样例&lt;/span&gt;&lt;span style=&quot;color:#008000;font-weight:bold;&quot;&gt;&#39;&lt;/span&gt;,&lt;br&gt;    &lt;span style=&quot;color:#660e7a;font-weight:bold;&quot;&gt;inurl        &lt;/span&gt;&lt;span style=&quot;color:#000080;font-weight:bold;&quot;&gt;comment &lt;/span&gt;&lt;span style=&quot;color:#008000;font-weight:bold;&quot;&gt;&#39;&lt;/span&gt;&lt;span style=&quot;color:#008000;font-weight:bold;font-family:&#39;Menlo-Regular&#39;,monospace;&quot;&gt;输入样例&lt;/span&gt;&lt;span style=&quot;color:#008000;font-weight:bold;&quot;&gt;url&#39;&lt;/span&gt;,&lt;br&gt;    &lt;span style=&quot;color:#660e7a;font-weight:bold;&quot;&gt;outurl       &lt;/span&gt;&lt;span style=&quot;color:#000080;font-weight:bold;&quot;&gt;comment &lt;/span&gt;&lt;span style=&quot;color:#008000;font-weight:bold;&quot;&gt;&#39;&lt;/span&gt;&lt;span style=&quot;color:#008000;font-weight:bold;font-family:&#39;Menlo-Regular&#39;,monospace;&quot;&gt;输出样例&lt;/span&gt;&lt;span style=&quot;color:#008000;font-weight:bold;&quot;&gt;url&#39;&lt;/span&gt;,&lt;br&gt;    &lt;span style=&quot;color:#660e7a;font-weight:bold;&quot;&gt;sample_type  &lt;/span&gt;&lt;span style=&quot;color:#000080;font-weight:bold;&quot;&gt;comment &lt;/span&gt;&lt;span style=&quot;color:#008000;font-weight:bold;&quot;&gt;&#39;&lt;/span&gt;&lt;span style=&quot;color:#008000;font-weight:bold;font-family:&#39;Menlo-Regular&#39;,monospace;&quot;&gt;输入类型&lt;/span&gt;&lt;span style=&quot;color:#008000;font-weight:bold;&quot;&gt; 0&lt;/span&gt;&lt;span style=&quot;color:#008000;font-weight:bold;font-family:&#39;Menlo-Regular&#39;,monospace;&quot;&gt;：文本&lt;/span&gt;&lt;span style=&quot;color:#008000;font-weight:bold;&quot;&gt; 1:txt&lt;/span&gt;&lt;span style=&quot;color:#008000;font-weight:bold;font-family:&#39;Menlo-Regular&#39;,monospace;&quot;&gt;文件&lt;/span&gt;&lt;span style=&quot;color:#008000;font-weight:bold;&quot;&gt;url&#39;&lt;br&gt;&lt;/span&gt;);&lt;/div&gt;&lt;/div&gt;" style="text;html=1;align=left;verticalAlign=middle;whiteSpace=wrap;rounded=0;fillColor=#FFF4C3;" parent="1" vertex="1">
          <mxGeometry x="110" y="155" width="417.5" height="190" as="geometry" />
        </mxCell>
        <mxCell id="yxHjGUX9_2zawr6rAn5c-26" value="题目&lt;div&gt;&lt;br&gt;&lt;/div&gt;&lt;div&gt;&lt;div style=&quot;background-color: rgb(255, 255, 255); font-family: &amp;quot;JetBrains Mono&amp;quot;, monospace; font-size: 9.8pt; white-space: pre;&quot;&gt;&lt;span style=&quot;color:#000080;font-weight:bold;&quot;&gt;create table &lt;/span&gt;problem_oj&lt;br&gt;(&lt;br&gt;&lt;span style=&quot;color:#660e7a;font-weight:bold;&quot;&gt;    &lt;/span&gt;title                 &lt;span style=&quot;color:#000080;font-weight:bold;&quot;&gt;comment &lt;/span&gt;&lt;span style=&quot;color:#008000;font-weight:bold;&quot;&gt;&#39;&lt;/span&gt;&lt;span style=&quot;color:#008000;font-weight:bold;font-family:&#39;Menlo-Regular&#39;,monospace;&quot;&gt;问题名称&lt;/span&gt;&lt;span style=&quot;color:#008000;font-weight:bold;&quot;&gt;&#39;&lt;/span&gt;,&lt;br&gt;    &lt;span style=&quot;color:#660e7a;font-weight:bold;&quot;&gt;language              &lt;/span&gt;&lt;span style=&quot;color:#000080;font-weight:bold;&quot;&gt;comment &lt;/span&gt;&lt;span style=&quot;color:#008000;font-weight:bold;&quot;&gt;&#39;&lt;/span&gt;&lt;span style=&quot;color:#008000;font-weight:bold;font-family:&#39;Menlo-Regular&#39;,monospace;&quot;&gt;编程语言&lt;/span&gt;&lt;span style=&quot;color:#008000;font-weight:bold;&quot;&gt;&#39;&lt;/span&gt;,&lt;br&gt;    &lt;span style=&quot;color:#660e7a;font-weight:bold;&quot;&gt;description           &lt;/span&gt;&lt;span style=&quot;color:#000080;font-weight:bold;&quot;&gt;comment &lt;/span&gt;&lt;span style=&quot;color:#008000;font-weight:bold;&quot;&gt;&#39;&lt;/span&gt;&lt;span style=&quot;color:#008000;font-weight:bold;font-family:&#39;Menlo-Regular&#39;,monospace;&quot;&gt;问题描述&lt;/span&gt;&lt;span style=&quot;color:#008000;font-weight:bold;&quot;&gt;&#39;&lt;/span&gt;,&lt;br&gt;    &lt;span style=&quot;color:#660e7a;font-weight:bold;&quot;&gt;input                 &lt;/span&gt;&lt;span style=&quot;color:#000080;font-weight:bold;&quot;&gt;comment &lt;/span&gt;&lt;span style=&quot;color:#008000;font-weight:bold;&quot;&gt;&#39;&lt;/span&gt;&lt;span style=&quot;color:#008000;font-weight:bold;font-family:&#39;Menlo-Regular&#39;,monospace;&quot;&gt;输入&lt;/span&gt;&lt;span style=&quot;color:#008000;font-weight:bold;&quot;&gt;&#39;&lt;/span&gt;,&lt;br&gt;    &lt;span style=&quot;color:#660e7a;font-weight:bold;&quot;&gt;output                &lt;/span&gt;&lt;span style=&quot;color:#000080;font-weight:bold;&quot;&gt;comment &lt;/span&gt;&lt;span style=&quot;color:#008000;font-weight:bold;&quot;&gt;&#39;&lt;/span&gt;&lt;span style=&quot;color:#008000;font-weight:bold;font-family:&#39;Menlo-Regular&#39;,monospace;&quot;&gt;输出&lt;/span&gt;&lt;span style=&quot;color:#008000;font-weight:bold;&quot;&gt;&#39;&lt;/span&gt;,&lt;br&gt;    &lt;span style=&quot;color:#660e7a;font-weight:bold;&quot;&gt;time_limit            &lt;/span&gt;&lt;span style=&quot;color:#000080;font-weight:bold;&quot;&gt;comment &lt;/span&gt;&lt;span style=&quot;color:#008000;font-weight:bold;&quot;&gt;&#39;&lt;/span&gt;&lt;span style=&quot;color:#008000;font-weight:bold;font-family:&#39;Menlo-Regular&#39;,monospace;&quot;&gt;执行时间（单位&lt;/span&gt;&lt;span style=&quot;color:#008000;font-weight:bold;&quot;&gt;ms&lt;/span&gt;&lt;span style=&quot;color:#008000;font-weight:bold;font-family:&#39;Menlo-Regular&#39;,monospace;&quot;&gt;）&lt;/span&gt;&lt;span style=&quot;color:#008000;font-weight:bold;&quot;&gt;&#39;&lt;/span&gt;,&lt;br&gt;    &lt;span style=&quot;color:#660e7a;font-weight:bold;&quot;&gt;memory_limit          &lt;/span&gt;&lt;span style=&quot;color:#000080;font-weight:bold;&quot;&gt;comment &lt;/span&gt;&lt;span style=&quot;color:#008000;font-weight:bold;&quot;&gt;&#39;&lt;/span&gt;&lt;span style=&quot;color:#008000;font-weight:bold;font-family:&#39;Menlo-Regular&#39;,monospace;&quot;&gt;内存使用 单位&lt;/span&gt;&lt;span style=&quot;color:#008000;font-weight:bold;&quot;&gt;MB&#39;&lt;/span&gt;,&lt;br&gt;    &lt;span style=&quot;color:#660e7a;font-weight:bold;&quot;&gt;level                 &lt;/span&gt;&lt;span style=&quot;color:#000080;font-weight:bold;&quot;&gt;comment &lt;/span&gt;&lt;span style=&quot;color:#008000;font-weight:bold;&quot;&gt;&#39;&lt;/span&gt;&lt;span style=&quot;color:#008000;font-weight:bold;font-family:&#39;Menlo-Regular&#39;,monospace;&quot;&gt;困难级别&lt;/span&gt;&lt;span style=&quot;color:#008000;font-weight:bold;&quot;&gt; 1-10&#39;&lt;/span&gt;,&lt;br&gt;    &lt;span style=&quot;color:#660e7a;font-weight:bold;&quot;&gt;tips                  &lt;/span&gt;&lt;span style=&quot;color:#000080;font-weight:bold;&quot;&gt;comment &lt;/span&gt;&lt;span style=&quot;color:#008000;font-weight:bold;&quot;&gt;&#39;&lt;/span&gt;&lt;span style=&quot;color:#008000;font-weight:bold;font-family:&#39;Menlo-Regular&#39;,monospace;&quot;&gt;提示&lt;/span&gt;&lt;span style=&quot;color:#008000;font-weight:bold;&quot;&gt;&#39;&lt;/span&gt;,&lt;br&gt;    &lt;span style=&quot;color:#660e7a;font-weight:bold;&quot;&gt;score                 &lt;/span&gt;&lt;span style=&quot;color:#000080;font-weight:bold;&quot;&gt;comment &lt;/span&gt;&lt;span style=&quot;color:#008000;font-weight:bold;&quot;&gt;&#39;&lt;/span&gt;&lt;span style=&quot;color:#008000;font-weight:bold;font-family:&#39;Menlo-Regular&#39;,monospace;&quot;&gt;总分&lt;/span&gt;&lt;span style=&quot;color:#008000;font-weight:bold;&quot;&gt;&#39;&lt;/span&gt;,&lt;br&gt;    &lt;span style=&quot;color:#660e7a;font-weight:bold;&quot;&gt;preset_code           &lt;/span&gt;&lt;span style=&quot;color:#000080;font-weight:bold;&quot;&gt;comment &lt;/span&gt;&lt;span style=&quot;color:#008000;font-weight:bold;&quot;&gt;&#39;&lt;/span&gt;&lt;span style=&quot;color:#008000;font-weight:bold;font-family:&#39;Menlo-Regular&#39;,monospace;&quot;&gt;预制代码&lt;/span&gt;&lt;span style=&quot;color:#008000;font-weight:bold;&quot;&gt;&#39;&lt;/span&gt;,&lt;br&gt;    &lt;span style=&quot;color:#660e7a;font-weight:bold;&quot;&gt;preset_answer         &lt;/span&gt;&lt;span style=&quot;color:#000080;font-weight:bold;&quot;&gt;comment &lt;/span&gt;&lt;span style=&quot;color:#008000;font-weight:bold;&quot;&gt;&#39;&lt;/span&gt;&lt;span style=&quot;color:#008000;font-weight:bold;font-family:&#39;Menlo-Regular&#39;,monospace;&quot;&gt;预制答案&lt;/span&gt;&lt;span style=&quot;color:#008000;font-weight:bold;&quot;&gt;&#39;&lt;/span&gt;,&lt;br&gt;    &lt;span style=&quot;color:#660e7a;font-weight:bold;&quot;&gt;is_delete             &lt;/span&gt;&lt;span style=&quot;color:#000080;font-weight:bold;&quot;&gt;comment &lt;/span&gt;&lt;span style=&quot;color:#008000;font-weight:bold;&quot;&gt;&#39;&lt;/span&gt;&lt;span style=&quot;color:#008000;font-weight:bold;font-family:&#39;Menlo-Regular&#39;,monospace;&quot;&gt;是否删除&lt;/span&gt;&lt;span style=&quot;color:#008000;font-weight:bold;&quot;&gt;&#39;&lt;/span&gt;,&lt;br&gt;    &lt;span style=&quot;color:#660e7a;font-weight:bold;&quot;&gt;ctime                 &lt;/span&gt;&lt;span style=&quot;color:#000080;font-weight:bold;&quot;&gt;comment &lt;/span&gt;&lt;span style=&quot;color:#008000;font-weight:bold;&quot;&gt;&#39;&lt;/span&gt;&lt;span style=&quot;color:#008000;font-weight:bold;font-family:&#39;Menlo-Regular&#39;,monospace;&quot;&gt;创建时间&lt;/span&gt;&lt;span style=&quot;color:#008000;font-weight:bold;&quot;&gt;&#39;&lt;/span&gt;,&lt;br&gt;    &lt;span style=&quot;color:#660e7a;font-weight:bold;&quot;&gt;utime                 &lt;/span&gt;&lt;span style=&quot;color:#000080;font-weight:bold;&quot;&gt;comment &lt;/span&gt;&lt;span style=&quot;color:#008000;font-weight:bold;&quot;&gt;&#39;&lt;/span&gt;&lt;span style=&quot;color:#008000;font-weight:bold;font-family:&#39;Menlo-Regular&#39;,monospace;&quot;&gt;更新时间&lt;/span&gt;&lt;span style=&quot;color:#008000;font-weight:bold;&quot;&gt;&#39;&lt;/span&gt;,&lt;br&gt;    &lt;span style=&quot;color:#660e7a;font-weight:bold;&quot;&gt;answer_url            &lt;/span&gt;&lt;span style=&quot;color:#000080;font-weight:bold;&quot;&gt;comment &lt;/span&gt;&lt;span style=&quot;color:#008000;font-weight:bold;&quot;&gt;&#39;&lt;/span&gt;&lt;span style=&quot;color:#008000;font-weight:bold;font-family:&#39;Menlo-Regular&#39;,monospace;&quot;&gt;试题答案解析&lt;/span&gt;&lt;span style=&quot;color:#008000;font-weight:bold;&quot;&gt;&#39;&lt;/span&gt;,&lt;br&gt;    &lt;span style=&quot;color:#660e7a;font-weight:bold;&quot;&gt;first_level_option    &lt;/span&gt;&lt;span style=&quot;color:#000080;font-weight:bold;&quot;&gt;comment &lt;/span&gt;&lt;span style=&quot;color:#008000;font-weight:bold;&quot;&gt;&#39;&lt;/span&gt;&lt;span style=&quot;color:#008000;font-weight:bold;font-family:&#39;Menlo-Regular&#39;,monospace;&quot;&gt;一级分类&lt;/span&gt;&lt;span style=&quot;color:#008000;font-weight:bold;&quot;&gt;&#39;&lt;/span&gt;,&lt;br&gt;    &lt;span style=&quot;color:#660e7a;font-weight:bold;&quot;&gt;second_level_option   &lt;/span&gt;&lt;span style=&quot;color:#000080;font-weight:bold;&quot;&gt;comment &lt;/span&gt;&lt;span style=&quot;color:#008000;font-weight:bold;&quot;&gt;&#39;&lt;/span&gt;&lt;span style=&quot;color:#008000;font-weight:bold;font-family:&#39;Menlo-Regular&#39;,monospace;&quot;&gt;二级分类&lt;/span&gt;&lt;span style=&quot;color:#008000;font-weight:bold;&quot;&gt;&#39;&lt;/span&gt;,&lt;br&gt;    &lt;span style=&quot;color:#660e7a;font-weight:bold;&quot;&gt;logical_thinking      &lt;/span&gt;&lt;span style=&quot;color:#000080;font-weight:bold;&quot;&gt;comment &lt;/span&gt;&lt;span style=&quot;color:#008000;font-weight:bold;&quot;&gt;&#39;&lt;/span&gt;&lt;span style=&quot;color:#008000;font-weight:bold;font-family:&#39;Menlo-Regular&#39;,monospace;&quot;&gt;是否为逻辑思维题&lt;/span&gt;&lt;span style=&quot;color:#008000;font-weight:bold;&quot;&gt; 0:&lt;/span&gt;&lt;span style=&quot;color:#008000;font-weight:bold;font-family:&#39;Menlo-Regular&#39;,monospace;&quot;&gt;否&lt;/span&gt;&lt;span style=&quot;color:#008000;font-weight:bold;&quot;&gt; 1:&lt;/span&gt;&lt;span style=&quot;color:#008000;font-weight:bold;font-family:&#39;Menlo-Regular&#39;,monospace;&quot;&gt;是&lt;/span&gt;&lt;span style=&quot;color:#008000;font-weight:bold;&quot;&gt;&#39;&lt;/span&gt;,&lt;br&gt;    &lt;span style=&quot;color:#660e7a;font-weight:bold;&quot;&gt;suit_grade            &lt;/span&gt;&lt;span style=&quot;color:#000080;font-weight:bold;&quot;&gt;comment &lt;/span&gt;&lt;span style=&quot;color:#008000;font-weight:bold;&quot;&gt;&#39;&lt;/span&gt;&lt;span style=&quot;color:#008000;font-weight:bold;font-family:&#39;Menlo-Regular&#39;,monospace;&quot;&gt;适用年级&lt;/span&gt;&lt;span style=&quot;color:#008000;font-weight:bold;&quot;&gt;  1:&lt;/span&gt;&lt;span style=&quot;color:#008000;font-weight:bold;font-family:&#39;Menlo-Regular&#39;,monospace;&quot;&gt;小学&lt;/span&gt;&lt;span style=&quot;color:#008000;font-weight:bold;&quot;&gt;  2:&lt;/span&gt;&lt;span style=&quot;color:#008000;font-weight:bold;font-family:&#39;Menlo-Regular&#39;,monospace;&quot;&gt;初中&lt;/span&gt;&lt;span style=&quot;color:#008000;font-weight:bold;&quot;&gt;  3:&lt;/span&gt;&lt;span style=&quot;color:#008000;font-weight:bold;font-family:&#39;Menlo-Regular&#39;,monospace;&quot;&gt;高中&lt;/span&gt;&lt;span style=&quot;color:#008000;font-weight:bold;&quot;&gt;&#39;&lt;/span&gt;,&lt;br&gt;    &lt;span style=&quot;color:#660e7a;font-weight:bold;&quot;&gt;year                  &lt;/span&gt;&lt;span style=&quot;color:#000080;font-weight:bold;&quot;&gt;comment &lt;/span&gt;&lt;span style=&quot;color:#008000;font-weight:bold;&quot;&gt;&#39;&lt;/span&gt;&lt;span style=&quot;color:#008000;font-weight:bold;font-family:&#39;Menlo-Regular&#39;,monospace;&quot;&gt;试题年份&lt;/span&gt;&lt;span style=&quot;color:#008000;font-weight:bold;&quot;&gt;&#39;&lt;/span&gt;,&lt;br&gt;    &lt;span style=&quot;color:#660e7a;font-weight:bold;&quot;&gt;problem_source        &lt;/span&gt;&lt;span style=&quot;color:#000080;font-weight:bold;&quot;&gt;comment &lt;/span&gt;&lt;span style=&quot;color:#008000;font-weight:bold;&quot;&gt;&#39;&lt;/span&gt;&lt;span style=&quot;color:#008000;font-weight:bold;font-family:&#39;Menlo-Regular&#39;,monospace;&quot;&gt;题目来源&lt;/span&gt;&lt;span style=&quot;color:#008000;font-weight:bold;&quot;&gt; 0&lt;/span&gt;&lt;span style=&quot;color:#008000;font-weight:bold;font-family:&#39;Menlo-Regular&#39;,monospace;&quot;&gt;题库、&lt;/span&gt;&lt;span style=&quot;color:#008000;font-weight:bold;&quot;&gt;1&lt;/span&gt;&lt;span style=&quot;color:#008000;font-weight:bold;font-family:&#39;Menlo-Regular&#39;,monospace;&quot;&gt;学校、&lt;/span&gt;&lt;span style=&quot;color:#008000;font-weight:bold;&quot;&gt;2&lt;/span&gt;&lt;span style=&quot;color:#008000;font-weight:bold;font-family:&#39;Menlo-Regular&#39;,monospace;&quot;&gt;教育局、&lt;/span&gt;&lt;span style=&quot;color:#008000;font-weight:bold;&quot;&gt;3&lt;/span&gt;&lt;span style=&quot;color:#008000;font-weight:bold;font-family:&#39;Menlo-Regular&#39;,monospace;&quot;&gt;其他&lt;/span&gt;&lt;span style=&quot;color:#008000;font-weight:bold;&quot;&gt;&#39;&lt;br&gt;&lt;/span&gt;);&lt;/div&gt;&lt;/div&gt;" style="text;html=1;align=left;verticalAlign=middle;whiteSpace=wrap;rounded=0;fillColor=#FFF4C3;" parent="1" vertex="1">
          <mxGeometry x="105" y="400" width="570" height="410" as="geometry" />
        </mxCell>
        <mxCell id="yxHjGUX9_2zawr6rAn5c-33" style="rounded=0;orthogonalLoop=1;jettySize=auto;html=1;exitX=0.5;exitY=1;exitDx=0;exitDy=0;entryX=0.5;entryY=0;entryDx=0;entryDy=0;edgeStyle=orthogonalEdgeStyle;" parent="1" source="yxHjGUX9_2zawr6rAn5c-31" target="yxHjGUX9_2zawr6rAn5c-3" edge="1">
          <mxGeometry relative="1" as="geometry" />
        </mxCell>
        <mxCell id="yxHjGUX9_2zawr6rAn5c-34" style="edgeStyle=orthogonalEdgeStyle;rounded=0;orthogonalLoop=1;jettySize=auto;html=1;exitX=0.5;exitY=1;exitDx=0;exitDy=0;" parent="1" source="yxHjGUX9_2zawr6rAn5c-31" target="yxHjGUX9_2zawr6rAn5c-2" edge="1">
          <mxGeometry relative="1" as="geometry" />
        </mxCell>
        <mxCell id="yxHjGUX9_2zawr6rAn5c-41" style="edgeStyle=orthogonalEdgeStyle;rounded=0;orthogonalLoop=1;jettySize=auto;html=1;exitX=0.5;exitY=1;exitDx=0;exitDy=0;entryX=0.485;entryY=-0.008;entryDx=0;entryDy=0;entryPerimeter=0;" parent="1" source="yxHjGUX9_2zawr6rAn5c-31" target="yxHjGUX9_2zawr6rAn5c-4" edge="1">
          <mxGeometry relative="1" as="geometry" />
        </mxCell>
        <mxCell id="yxHjGUX9_2zawr6rAn5c-31" value="exam&lt;div style=&quot;border-color: var(--border-color);&quot;&gt;&lt;br style=&quot;border-color: var(--border-color);&quot;&gt;&lt;/div&gt;&lt;div style=&quot;border-color: var(--border-color);&quot;&gt;总分&lt;/div&gt;&lt;div style=&quot;border-color: var(--border-color);&quot;&gt;语言&lt;/div&gt;" style="rounded=0;whiteSpace=wrap;html=1;fillColor=#D5E8D4;" parent="1" vertex="1">
          <mxGeometry x="620" y="-120" width="120" height="60" as="geometry" />
        </mxCell>
        <mxCell id="yxHjGUX9_2zawr6rAn5c-44" value="&lt;span style=&quot;font-size: 11px; background-color: rgb(255, 255, 255);&quot;&gt;题目id&lt;/span&gt;&lt;div style=&quot;border-color: var(--border-color); font-size: 11px;&quot;&gt;题目类型&lt;/div&gt;&lt;div style=&quot;border-color: var(--border-color); font-size: 11px;&quot;&gt;题目排序&lt;br style=&quot;border-color: var(--border-color);&quot;&gt;&lt;div style=&quot;border-color: var(--border-color);&quot;&gt;题目分数&lt;/div&gt;&lt;/div&gt;" style="text;html=1;align=center;verticalAlign=middle;resizable=0;points=[];autosize=1;strokeColor=none;fillColor=none;" parent="1" vertex="1">
          <mxGeometry x="640" y="-50" width="70" height="70" as="geometry" />
        </mxCell>
        <mxCell id="yxHjGUX9_2zawr6rAn5c-49" value="" style="rounded=0;whiteSpace=wrap;html=1;fillColor=#FFE6CC;" parent="1" vertex="1">
          <mxGeometry x="750" y="260" width="530" height="610" as="geometry" />
        </mxCell>
        <mxCell id="yxHjGUX9_2zawr6rAn5c-50" value="用户答题" style="text;html=1;align=center;verticalAlign=middle;whiteSpace=wrap;rounded=0;" parent="1" vertex="1">
          <mxGeometry x="970" y="275" width="60" height="30" as="geometry" />
        </mxCell>
        <mxCell id="yxHjGUX9_2zawr6rAn5c-51" value="&lt;div style=&quot;border-color: var(--border-color); text-align: left; white-space: pre; background-color: rgb(255, 255, 255); font-family: &amp;quot;JetBrains Mono&amp;quot;, monospace; font-size: 9.8pt;&quot;&gt;&lt;span style=&quot;border-color: var(--border-color); color: rgb(0, 0, 128); font-weight: bold;&quot;&gt;试卷答题&lt;/span&gt;&lt;/div&gt;&lt;div style=&quot;border-color: var(--border-color); text-align: left; white-space: pre; background-color: rgb(255, 255, 255); font-family: &amp;quot;JetBrains Mono&amp;quot;, monospace; font-size: 9.8pt;&quot;&gt;&lt;span style=&quot;border-color: var(--border-color); color: rgb(0, 0, 128); font-weight: bold;&quot;&gt;create table &lt;/span&gt;submission_exam_6&lt;br style=&quot;border-color: var(--border-color);&quot;&gt;(&lt;br style=&quot;border-color: var(--border-color);&quot;&gt;    &lt;span style=&quot;border-color: var(--border-color); color: rgb(102, 14, 122); font-weight: bold;&quot;&gt;exam_id      &lt;/span&gt;&lt;span style=&quot;border-color: var(--border-color); color: rgb(0, 0, 128); font-weight: bold;&quot;&gt;comment &lt;/span&gt;&lt;span style=&quot;border-color: var(--border-color); color: rgb(0, 128, 0); font-weight: bold;&quot;&gt;&#39;&lt;/span&gt;&lt;span style=&quot;border-color: var(--border-color); color: rgb(0, 128, 0); font-weight: bold; font-family: Menlo-Regular, monospace;&quot;&gt;试卷&lt;/span&gt;&lt;span style=&quot;border-color: var(--border-color); color: rgb(0, 128, 0); font-weight: bold;&quot;&gt;ID&#39;&lt;/span&gt;,&lt;br style=&quot;border-color: var(--border-color);&quot;&gt;    &lt;span style=&quot;border-color: var(--border-color); color: rgb(102, 14, 122); font-weight: bold;&quot;&gt;score        &lt;/span&gt;&lt;span style=&quot;border-color: var(--border-color); color: rgb(0, 0, 128); font-weight: bold;&quot;&gt;comment &lt;/span&gt;&lt;span style=&quot;border-color: var(--border-color); color: rgb(0, 128, 0); font-weight: bold;&quot;&gt;&#39;&lt;/span&gt;&lt;span style=&quot;border-color: var(--border-color); color: rgb(0, 128, 0); font-weight: bold; font-family: Menlo-Regular, monospace;&quot;&gt;得分&lt;/span&gt;&lt;span style=&quot;border-color: var(--border-color); color: rgb(0, 128, 0); font-weight: bold;&quot;&gt;&#39;&lt;/span&gt;,&lt;br style=&quot;border-color: var(--border-color);&quot;&gt;    &lt;span style=&quot;border-color: var(--border-color); color: rgb(102, 14, 122); font-weight: bold;&quot;&gt;user_id      &lt;/span&gt;&lt;span style=&quot;border-color: var(--border-color); color: rgb(0, 0, 128); font-weight: bold;&quot;&gt;comment &lt;/span&gt;&lt;span style=&quot;border-color: var(--border-color); color: rgb(0, 128, 0); font-weight: bold;&quot;&gt;&#39;&lt;/span&gt;&lt;span style=&quot;border-color: var(--border-color); color: rgb(0, 128, 0); font-weight: bold; font-family: Menlo-Regular, monospace;&quot;&gt;提交用户&lt;/span&gt;&lt;span style=&quot;border-color: var(--border-color); color: rgb(0, 128, 0); font-weight: bold;&quot;&gt;&#39;&lt;/span&gt;,&lt;br style=&quot;border-color: var(--border-color);&quot;&gt;    &lt;span style=&quot;border-color: var(--border-color); color: rgb(102, 14, 122); font-weight: bold;&quot;&gt;time_cost    &lt;/span&gt;&lt;span style=&quot;border-color: var(--border-color); color: rgb(0, 0, 128); font-weight: bold;&quot;&gt;comment &lt;/span&gt;&lt;span style=&quot;border-color: var(--border-color); color: rgb(0, 128, 0); font-weight: bold;&quot;&gt;&#39;&lt;/span&gt;&lt;span style=&quot;border-color: var(--border-color); color: rgb(0, 128, 0); font-weight: bold; font-family: Menlo-Regular, monospace;&quot;&gt;实际消耗时间&lt;/span&gt;&lt;span style=&quot;border-color: var(--border-color); color: rgb(0, 128, 0); font-weight: bold;&quot;&gt;&#39;&lt;/span&gt;,&lt;br style=&quot;border-color: var(--border-color);&quot;&gt;    &lt;span style=&quot;border-color: var(--border-color); color: rgb(102, 14, 122); font-weight: bold;&quot;&gt;memory_cost  &lt;/span&gt;&lt;span style=&quot;border-color: var(--border-color); color: rgb(0, 0, 128); font-weight: bold;&quot;&gt;comment &lt;/span&gt;&lt;span style=&quot;border-color: var(--border-color); color: rgb(0, 128, 0); font-weight: bold;&quot;&gt;&#39;&lt;/span&gt;&lt;span style=&quot;border-color: var(--border-color); color: rgb(0, 128, 0); font-weight: bold; font-family: Menlo-Regular, monospace;&quot;&gt;实际内存占用&lt;/span&gt;&lt;span style=&quot;border-color: var(--border-color); color: rgb(0, 128, 0); font-weight: bold;&quot;&gt; MB&#39;&lt;/span&gt;,&lt;br style=&quot;border-color: var(--border-color);&quot;&gt;    &lt;span style=&quot;border-color: var(--border-color); color: rgb(102, 14, 122); font-weight: bold;&quot;&gt;user_name    &lt;/span&gt;&lt;span style=&quot;border-color: var(--border-color); color: rgb(0, 0, 128); font-weight: bold;&quot;&gt;comment &lt;/span&gt;&lt;span style=&quot;border-color: var(--border-color); color: rgb(0, 128, 0); font-weight: bold;&quot;&gt;&#39;&lt;/span&gt;&lt;span style=&quot;border-color: var(--border-color); color: rgb(0, 128, 0); font-weight: bold; font-family: Menlo-Regular, monospace;&quot;&gt;用户姓名&lt;/span&gt;&lt;span style=&quot;border-color: var(--border-color); color: rgb(0, 128, 0); font-weight: bold;&quot;&gt;&#39;&lt;/span&gt;,&lt;br style=&quot;border-color: var(--border-color);&quot;&gt;    &lt;span style=&quot;border-color: var(--border-color); color: rgb(102, 14, 122); font-weight: bold;&quot;&gt;app_id       &lt;/span&gt;&lt;span style=&quot;border-color: var(--border-color); color: rgb(0, 0, 128); font-weight: bold;&quot;&gt;comment &lt;/span&gt;&lt;span style=&quot;border-color: var(--border-color); color: rgb(0, 128, 0); font-weight: bold;&quot;&gt;&#39;&lt;/span&gt;&lt;span style=&quot;border-color: var(--border-color); color: rgb(0, 128, 0); font-weight: bold; font-family: Menlo-Regular, monospace;&quot;&gt;应用标示&lt;/span&gt;&lt;span style=&quot;border-color: var(--border-color); color: rgb(0, 128, 0); font-weight: bold;&quot;&gt;&#39;&lt;/span&gt;,&lt;br style=&quot;border-color: var(--border-color);&quot;&gt;    &lt;span style=&quot;border-color: var(--border-color); color: rgb(102, 14, 122); font-weight: bold;&quot;&gt;is_delete    &lt;/span&gt;&lt;span style=&quot;border-color: var(--border-color); color: rgb(0, 0, 128); font-weight: bold;&quot;&gt;comment &lt;/span&gt;&lt;span style=&quot;border-color: var(--border-color); color: rgb(0, 128, 0); font-weight: bold;&quot;&gt;&#39;&lt;/span&gt;&lt;span style=&quot;border-color: var(--border-color); color: rgb(0, 128, 0); font-weight: bold; font-family: Menlo-Regular, monospace;&quot;&gt;是否删除&lt;/span&gt;&lt;span style=&quot;border-color: var(--border-color); color: rgb(0, 128, 0); font-weight: bold;&quot;&gt;&#39;&lt;/span&gt;,&lt;br style=&quot;border-color: var(--border-color);&quot;&gt;    &lt;span style=&quot;border-color: var(--border-color); color: rgb(102, 14, 122); font-weight: bold;&quot;&gt;user_answer  &lt;/span&gt;&lt;span style=&quot;border-color: var(--border-color); color: rgb(0, 0, 128); font-weight: bold;&quot;&gt;comment &lt;/span&gt;&lt;span style=&quot;border-color: var(--border-color); color: rgb(0, 128, 0); font-weight: bold;&quot;&gt;&#39;&lt;/span&gt;&lt;span style=&quot;border-color: var(--border-color); color: rgb(0, 128, 0); font-weight: bold; font-family: Menlo-Regular, monospace;&quot;&gt;用户答案&lt;/span&gt;&lt;span style=&quot;border-color: var(--border-color); color: rgb(0, 128, 0); font-weight: bold;&quot;&gt;&#39;&lt;br style=&quot;border-color: var(--border-color);&quot;&gt;&lt;/span&gt;);&lt;/div&gt;" style="text;html=1;align=center;verticalAlign=middle;whiteSpace=wrap;rounded=0;" parent="1" vertex="1">
          <mxGeometry x="761" y="290" width="340" height="220" as="geometry" />
        </mxCell>
        <mxCell id="yxHjGUX9_2zawr6rAn5c-52" value="&lt;span style=&quot;text-wrap: nowrap;&quot;&gt;题目答题&lt;/span&gt;&lt;div style=&quot;border-color: var(--border-color); text-wrap: nowrap;&quot;&gt;&lt;br style=&quot;border-color: var(--border-color);&quot;&gt;&lt;/div&gt;&lt;div style=&quot;border-color: var(--border-color); text-wrap: nowrap;&quot;&gt;&lt;div style=&quot;border-color: var(--border-color); background-color: rgb(255, 255, 255); font-family: &amp;quot;JetBrains Mono&amp;quot;, monospace; font-size: 9.8pt; white-space-collapse: preserve;&quot;&gt;&lt;span style=&quot;border-color: var(--border-color); color: rgb(0, 0, 128); font-weight: bold;&quot;&gt;create table &lt;/span&gt;submission&lt;br style=&quot;border-color: var(--border-color);&quot;&gt;(&lt;br style=&quot;border-color: var(--border-color);&quot;&gt;    &lt;span style=&quot;border-color: var(--border-color); color: rgb(102, 14, 122); font-weight: bold;&quot;&gt;problem_id           &lt;/span&gt;&lt;span style=&quot;border-color: var(--border-color); color: rgb(0, 0, 128); font-weight: bold;&quot;&gt;comment &lt;/span&gt;&lt;span style=&quot;border-color: var(--border-color); color: rgb(0, 128, 0); font-weight: bold;&quot;&gt;&#39;&lt;/span&gt;&lt;span style=&quot;border-color: var(--border-color); color: rgb(0, 128, 0); font-weight: bold; font-family: Menlo-Regular, monospace;&quot;&gt;问题&lt;/span&gt;&lt;span style=&quot;border-color: var(--border-color); color: rgb(0, 128, 0); font-weight: bold;&quot;&gt;ID&#39;&lt;/span&gt;,&lt;br style=&quot;border-color: var(--border-color);&quot;&gt;    &lt;span style=&quot;border-color: var(--border-color); color: rgb(102, 14, 122); font-weight: bold;&quot;&gt;answer               &lt;/span&gt;&lt;span style=&quot;border-color: var(--border-color); color: rgb(0, 0, 128); font-weight: bold;&quot;&gt;comment &lt;/span&gt;&lt;span style=&quot;border-color: var(--border-color); color: rgb(0, 128, 0); font-weight: bold;&quot;&gt;&#39;&lt;/span&gt;&lt;span style=&quot;border-color: var(--border-color); color: rgb(0, 128, 0); font-weight: bold; font-family: Menlo-Regular, monospace;&quot;&gt;答案  包括代码&lt;/span&gt;&lt;span style=&quot;border-color: var(--border-color); color: rgb(0, 128, 0); font-weight: bold;&quot;&gt;&#39;&lt;/span&gt;,&lt;br style=&quot;border-color: var(--border-color);&quot;&gt;    &lt;span style=&quot;border-color: var(--border-color); color: rgb(102, 14, 122); font-weight: bold;&quot;&gt;ip                   &lt;/span&gt;&lt;span style=&quot;border-color: var(--border-color); color: rgb(0, 0, 128); font-weight: bold;&quot;&gt;comment &lt;/span&gt;&lt;span style=&quot;border-color: var(--border-color); color: rgb(0, 128, 0); font-weight: bold;&quot;&gt;&#39;&lt;/span&gt;&lt;span style=&quot;border-color: var(--border-color); color: rgb(0, 128, 0); font-weight: bold; font-family: Menlo-Regular, monospace;&quot;&gt;提交&lt;/span&gt;&lt;span style=&quot;border-color: var(--border-color); color: rgb(0, 128, 0); font-weight: bold;&quot;&gt;ip&#39;&lt;/span&gt;,&lt;br style=&quot;border-color: var(--border-color);&quot;&gt;    &lt;span style=&quot;border-color: var(--border-color); color: rgb(102, 14, 122); font-weight: bold;&quot;&gt;result               &lt;/span&gt;&lt;span style=&quot;border-color: var(--border-color); color: rgb(0, 0, 128); font-weight: bold;&quot;&gt;comment &lt;/span&gt;&lt;span style=&quot;border-color: var(--border-color); color: rgb(0, 128, 0); font-weight: bold;&quot;&gt;&#39;&lt;/span&gt;&lt;span style=&quot;border-color: var(--border-color); color: rgb(0, 128, 0); font-weight: bold; font-family: Menlo-Regular, monospace;&quot;&gt;状态&lt;/span&gt;&lt;span style=&quot;border-color: var(--border-color); color: rgb(0, 128, 0); font-weight: bold;&quot;&gt;&#39;&lt;/span&gt;,&lt;br style=&quot;border-color: var(--border-color);&quot;&gt;    &lt;span style=&quot;border-color: var(--border-color); color: rgb(102, 14, 122); font-weight: bold;&quot;&gt;language             &lt;/span&gt;&lt;span style=&quot;border-color: var(--border-color); color: rgb(0, 0, 128); font-weight: bold;&quot;&gt;comment &lt;/span&gt;&lt;span style=&quot;border-color: var(--border-color); color: rgb(0, 128, 0); font-weight: bold;&quot;&gt;&#39;&lt;/span&gt;&lt;span style=&quot;border-color: var(--border-color); color: rgb(0, 128, 0); font-weight: bold; font-family: Menlo-Regular, monospace;&quot;&gt;编程语言&lt;/span&gt;&lt;span style=&quot;border-color: var(--border-color); color: rgb(0, 128, 0); font-weight: bold;&quot;&gt;&#39;&lt;/span&gt;,&lt;br style=&quot;border-color: var(--border-color);&quot;&gt;    &lt;span style=&quot;border-color: var(--border-color); color: rgb(102, 14, 122); font-weight: bold;&quot;&gt;error_msg            &lt;/span&gt;&lt;span style=&quot;border-color: var(--border-color); color: rgb(0, 0, 128); font-weight: bold;&quot;&gt;comment &lt;/span&gt;&lt;span style=&quot;border-color: var(--border-color); color: rgb(0, 128, 0); font-weight: bold;&quot;&gt;&#39;&lt;/span&gt;&lt;span style=&quot;border-color: var(--border-color); color: rgb(0, 128, 0); font-weight: bold; font-family: Menlo-Regular, monospace;&quot;&gt;错误提示信息&lt;/span&gt;&lt;span style=&quot;border-color: var(--border-color); color: rgb(0, 128, 0); font-weight: bold;&quot;&gt;&#39;&lt;/span&gt;,&lt;br style=&quot;border-color: var(--border-color);&quot;&gt;    &lt;span style=&quot;border-color: var(--border-color); color: rgb(102, 14, 122); font-weight: bold;&quot;&gt;score                &lt;/span&gt;&lt;span style=&quot;border-color: var(--border-color); color: rgb(0, 0, 128); font-weight: bold;&quot;&gt;comment &lt;/span&gt;&lt;span style=&quot;border-color: var(--border-color); color: rgb(0, 128, 0); font-weight: bold;&quot;&gt;&#39;&lt;/span&gt;&lt;span style=&quot;border-color: var(--border-color); color: rgb(0, 128, 0); font-weight: bold; font-family: Menlo-Regular, monospace;&quot;&gt;得分&lt;/span&gt;&lt;span style=&quot;border-color: var(--border-color); color: rgb(0, 128, 0); font-weight: bold;&quot;&gt;&#39;&lt;/span&gt;,&lt;br style=&quot;border-color: var(--border-color);&quot;&gt;    &lt;span style=&quot;border-color: var(--border-color); color: rgb(102, 14, 122); font-weight: bold;&quot;&gt;user_id              &lt;/span&gt;&lt;span style=&quot;border-color: var(--border-color); color: rgb(0, 0, 128); font-weight: bold;&quot;&gt;comment &lt;/span&gt;&lt;span style=&quot;border-color: var(--border-color); color: rgb(0, 128, 0); font-weight: bold;&quot;&gt;&#39;&lt;/span&gt;&lt;span style=&quot;border-color: var(--border-color); color: rgb(0, 128, 0); font-weight: bold; font-family: Menlo-Regular, monospace;&quot;&gt;提交用户&lt;/span&gt;&lt;span style=&quot;border-color: var(--border-color); color: rgb(0, 128, 0); font-weight: bold;&quot;&gt;&#39;&lt;/span&gt;,&lt;br style=&quot;border-color: var(--border-color);&quot;&gt;    &lt;span style=&quot;border-color: var(--border-color); color: rgb(102, 14, 122); font-weight: bold;&quot;&gt;time_cost            &lt;/span&gt;&lt;span style=&quot;border-color: var(--border-color); color: rgb(0, 0, 128); font-weight: bold;&quot;&gt;comment &lt;/span&gt;&lt;span style=&quot;border-color: var(--border-color); color: rgb(0, 128, 0); font-weight: bold;&quot;&gt;&#39;&lt;/span&gt;&lt;span style=&quot;border-color: var(--border-color); color: rgb(0, 128, 0); font-weight: bold; font-family: Menlo-Regular, monospace;&quot;&gt;实际消耗时间&lt;/span&gt;&lt;span style=&quot;border-color: var(--border-color); color: rgb(0, 128, 0); font-weight: bold;&quot;&gt;&#39;&lt;/span&gt;,&lt;br style=&quot;border-color: var(--border-color);&quot;&gt;    &lt;span style=&quot;border-color: var(--border-color); color: rgb(102, 14, 122); font-weight: bold;&quot;&gt;memory_cost          &lt;/span&gt;&lt;span style=&quot;border-color: var(--border-color); color: rgb(0, 0, 128); font-weight: bold;&quot;&gt;comment &lt;/span&gt;&lt;span style=&quot;border-color: var(--border-color); color: rgb(0, 128, 0); font-weight: bold;&quot;&gt;&#39;&lt;/span&gt;&lt;span style=&quot;border-color: var(--border-color); color: rgb(0, 128, 0); font-weight: bold; font-family: Menlo-Regular, monospace;&quot;&gt;实际内存占用&lt;/span&gt;&lt;span style=&quot;border-color: var(--border-color); color: rgb(0, 128, 0); font-weight: bold;&quot;&gt; MB&#39;&lt;/span&gt;,&lt;br style=&quot;border-color: var(--border-color);&quot;&gt;    &lt;span style=&quot;border-color: var(--border-color); color: rgb(102, 14, 122); font-weight: bold;&quot;&gt;sample_result        &lt;/span&gt;&lt;span style=&quot;border-color: var(--border-color); color: rgb(0, 0, 128); font-weight: bold;&quot;&gt;comment &lt;/span&gt;&lt;span style=&quot;border-color: var(--border-color); color: rgb(0, 128, 0); font-weight: bold;&quot;&gt;&#39;&lt;/span&gt;&lt;span style=&quot;border-color: var(--border-color); color: rgb(0, 128, 0); font-weight: bold; font-family: Menlo-Regular, monospace;&quot;&gt;样例执行结果&lt;/span&gt;&lt;span style=&quot;border-color: var(--border-color); color: rgb(0, 128, 0); font-weight: bold;&quot;&gt; json&lt;/span&gt;&lt;span style=&quot;border-color: var(--border-color); color: rgb(0, 128, 0); font-weight: bold; font-family: Menlo-Regular, monospace;&quot;&gt;字符串存储&lt;/span&gt;&lt;span style=&quot;border-color: var(--border-color); color: rgb(0, 128, 0); font-weight: bold;&quot;&gt;&#39;&lt;/span&gt;,&lt;br style=&quot;border-color: var(--border-color);&quot;&gt;    &lt;span style=&quot;border-color: var(--border-color); color: rgb(102, 14, 122); font-weight: bold;&quot;&gt;case_count           &lt;/span&gt;&lt;span style=&quot;border-color: var(--border-color); color: rgb(0, 0, 128); font-weight: bold;&quot;&gt;comment &lt;/span&gt;&lt;span style=&quot;border-color: var(--border-color); color: rgb(0, 128, 0); font-weight: bold;&quot;&gt;&#39;&lt;/span&gt;&lt;span style=&quot;border-color: var(--border-color); color: rgb(0, 128, 0); font-weight: bold; font-family: Menlo-Regular, monospace;&quot;&gt;样例条数&lt;/span&gt;&lt;span style=&quot;border-color: var(--border-color); color: rgb(0, 128, 0); font-weight: bold;&quot;&gt;&#39;&lt;/span&gt;,&lt;br style=&quot;border-color: var(--border-color);&quot;&gt;    &lt;span style=&quot;border-color: var(--border-color); color: rgb(102, 14, 122); font-weight: bold;&quot;&gt;pass_case_count      &lt;/span&gt;&lt;span style=&quot;border-color: var(--border-color); color: rgb(0, 0, 128); font-weight: bold;&quot;&gt;comment &lt;/span&gt;&lt;span style=&quot;border-color: var(--border-color); color: rgb(0, 128, 0); font-weight: bold;&quot;&gt;&#39;&lt;/span&gt;&lt;span style=&quot;border-color: var(--border-color); color: rgb(0, 128, 0); font-weight: bold; font-family: Menlo-Regular, monospace;&quot;&gt;通过条数&lt;/span&gt;&lt;span style=&quot;border-color: var(--border-color); color: rgb(0, 128, 0); font-weight: bold;&quot;&gt;&#39;&lt;/span&gt;,&lt;br style=&quot;border-color: var(--border-color);&quot;&gt;    &lt;span style=&quot;border-color: var(--border-color); color: rgb(102, 14, 122); font-weight: bold;&quot;&gt;user_name            &lt;/span&gt;&lt;span style=&quot;border-color: var(--border-color); color: rgb(0, 0, 128); font-weight: bold;&quot;&gt;comment &lt;/span&gt;&lt;span style=&quot;border-color: var(--border-color); color: rgb(0, 128, 0); font-weight: bold;&quot;&gt;&#39;&lt;/span&gt;&lt;span style=&quot;border-color: var(--border-color); color: rgb(0, 128, 0); font-weight: bold; font-family: Menlo-Regular, monospace;&quot;&gt;用户姓名&lt;/span&gt;&lt;span style=&quot;border-color: var(--border-color); color: rgb(0, 128, 0); font-weight: bold;&quot;&gt;&#39;&lt;/span&gt;,&lt;br style=&quot;border-color: var(--border-color);&quot;&gt;    &lt;span style=&quot;border-color: var(--border-color); color: rgb(102, 14, 122); font-weight: bold;&quot;&gt;app_id               &lt;/span&gt;&lt;span style=&quot;border-color: var(--border-color); color: rgb(0, 0, 128); font-weight: bold;&quot;&gt;comment &lt;/span&gt;&lt;span style=&quot;border-color: var(--border-color); color: rgb(0, 128, 0); font-weight: bold;&quot;&gt;&#39;&lt;/span&gt;&lt;span style=&quot;border-color: var(--border-color); color: rgb(0, 128, 0); font-weight: bold; font-family: Menlo-Regular, monospace;&quot;&gt;应用标示&lt;/span&gt;&lt;span style=&quot;border-color: var(--border-color); color: rgb(0, 128, 0); font-weight: bold;&quot;&gt;&#39;&lt;/span&gt;,&lt;br style=&quot;border-color: var(--border-color);&quot;&gt;    &lt;span style=&quot;border-color: var(--border-color); color: rgb(102, 14, 122); font-weight: bold;&quot;&gt;exam_id              &lt;/span&gt;&lt;span style=&quot;border-color: var(--border-color); color: rgb(0, 0, 128); font-weight: bold;&quot;&gt;comment &lt;/span&gt;&lt;span style=&quot;border-color: var(--border-color); color: rgb(0, 128, 0); font-weight: bold;&quot;&gt;&#39;&lt;/span&gt;&lt;span style=&quot;border-color: var(--border-color); color: rgb(0, 128, 0); font-weight: bold; font-family: Menlo-Regular, monospace;&quot;&gt;试卷&lt;/span&gt;&lt;span style=&quot;border-color: var(--border-color); color: rgb(0, 128, 0); font-weight: bold;&quot;&gt;ID&#39;&lt;/span&gt;,&lt;br style=&quot;border-color: var(--border-color);&quot;&gt;    &lt;span style=&quot;border-color: var(--border-color); color: rgb(102, 14, 122); font-weight: bold;&quot;&gt;submission_exam_id   &lt;/span&gt;&lt;span style=&quot;border-color: var(--border-color); color: rgb(0, 0, 128); font-weight: bold;&quot;&gt;comment &lt;/span&gt;&lt;span style=&quot;border-color: var(--border-color); color: rgb(0, 128, 0); font-weight: bold;&quot;&gt;&#39;&lt;/span&gt;&lt;span style=&quot;border-color: var(--border-color); color: rgb(0, 128, 0); font-weight: bold; font-family: Menlo-Regular, monospace;&quot;&gt;试卷提交记录&lt;/span&gt;&lt;span style=&quot;border-color: var(--border-color); color: rgb(0, 128, 0); font-weight: bold;&quot;&gt;&#39;&lt;br style=&quot;border-color: var(--border-color);&quot;&gt;&lt;/span&gt;);&lt;/div&gt;&lt;/div&gt;" style="text;html=1;align=left;verticalAlign=middle;whiteSpace=wrap;rounded=0;" parent="1" vertex="1">
          <mxGeometry x="761" y="500" width="470" height="360" as="geometry" />
        </mxCell>
        <mxCell id="yxHjGUX9_2zawr6rAn5c-53" style="edgeStyle=orthogonalEdgeStyle;rounded=0;orthogonalLoop=1;jettySize=auto;html=1;entryX=0.234;entryY=0;entryDx=0;entryDy=0;entryPerimeter=0;" parent="1" target="yxHjGUX9_2zawr6rAn5c-49" edge="1">
          <mxGeometry relative="1" as="geometry">
            <mxPoint x="874" y="180" as="sourcePoint" />
          </mxGeometry>
        </mxCell>
        <mxCell id="yxHjGUX9_2zawr6rAn5c-56" value="答题" style="edgeLabel;html=1;align=center;verticalAlign=middle;resizable=0;points=[];" parent="yxHjGUX9_2zawr6rAn5c-53" vertex="1" connectable="0">
          <mxGeometry x="-0.5837" y="-3" relative="1" as="geometry">
            <mxPoint as="offset" />
          </mxGeometry>
        </mxCell>
        <mxCell id="yxHjGUX9_2zawr6rAn5c-54" style="edgeStyle=orthogonalEdgeStyle;rounded=0;orthogonalLoop=1;jettySize=auto;html=1;exitX=0.5;exitY=1;exitDx=0;exitDy=0;entryX=0.672;entryY=0.002;entryDx=0;entryDy=0;entryPerimeter=0;" parent="1" source="yxHjGUX9_2zawr6rAn5c-2" target="yxHjGUX9_2zawr6rAn5c-49" edge="1">
          <mxGeometry relative="1" as="geometry" />
        </mxCell>
        <mxCell id="yxHjGUX9_2zawr6rAn5c-57" value="答题" style="edgeLabel;html=1;align=center;verticalAlign=middle;resizable=0;points=[];" parent="yxHjGUX9_2zawr6rAn5c-54" vertex="1" connectable="0">
          <mxGeometry x="-0.3505" y="-2" relative="1" as="geometry">
            <mxPoint as="offset" />
          </mxGeometry>
        </mxCell>
        <mxCell id="yxHjGUX9_2zawr6rAn5c-55" style="edgeStyle=orthogonalEdgeStyle;rounded=0;orthogonalLoop=1;jettySize=auto;html=1;exitX=0.425;exitY=1.001;exitDx=0;exitDy=0;entryX=-0.007;entryY=0.569;entryDx=0;entryDy=0;entryPerimeter=0;exitPerimeter=0;" parent="1" source="yxHjGUX9_2zawr6rAn5c-4" target="yxHjGUX9_2zawr6rAn5c-49" edge="1">
          <mxGeometry relative="1" as="geometry">
            <Array as="points">
              <mxPoint x="346" y="890" />
              <mxPoint x="715" y="890" />
              <mxPoint x="715" y="607" />
            </Array>
          </mxGeometry>
        </mxCell>
        <mxCell id="yxHjGUX9_2zawr6rAn5c-58" value="答题" style="edgeLabel;html=1;align=center;verticalAlign=middle;resizable=0;points=[];" parent="yxHjGUX9_2zawr6rAn5c-55" vertex="1" connectable="0">
          <mxGeometry x="-0.0017" y="-5" relative="1" as="geometry">
            <mxPoint as="offset" />
          </mxGeometry>
        </mxCell>
        <mxCell id="M4ZCVq2ltAWeAlEzBP5C-8" style="edgeStyle=orthogonalEdgeStyle;rounded=0;orthogonalLoop=1;jettySize=auto;html=1;exitX=0.5;exitY=1;exitDx=0;exitDy=0;entryX=0.25;entryY=0;entryDx=0;entryDy=0;curved=1;" edge="1" parent="1" source="M4ZCVq2ltAWeAlEzBP5C-2" target="M4ZCVq2ltAWeAlEzBP5C-4">
          <mxGeometry relative="1" as="geometry" />
        </mxCell>
        <mxCell id="M4ZCVq2ltAWeAlEzBP5C-2" value="crm后台" style="rounded=0;whiteSpace=wrap;html=1;" vertex="1" parent="1">
          <mxGeometry x="1654" y="55" width="120" height="60" as="geometry" />
        </mxCell>
        <mxCell id="M4ZCVq2ltAWeAlEzBP5C-23" style="edgeStyle=orthogonalEdgeStyle;rounded=0;orthogonalLoop=1;jettySize=auto;html=1;exitX=0.5;exitY=1;exitDx=0;exitDy=0;entryX=0.25;entryY=0;entryDx=0;entryDy=0;curved=1;" edge="1" parent="1" source="M4ZCVq2ltAWeAlEzBP5C-3" target="M4ZCVq2ltAWeAlEzBP5C-22">
          <mxGeometry relative="1" as="geometry" />
        </mxCell>
        <mxCell id="M4ZCVq2ltAWeAlEzBP5C-3" value="hoj题库后台" style="rounded=0;whiteSpace=wrap;html=1;" vertex="1" parent="1">
          <mxGeometry x="2630" y="125" width="120" height="60" as="geometry" />
        </mxCell>
        <mxCell id="M4ZCVq2ltAWeAlEzBP5C-10" style="edgeStyle=orthogonalEdgeStyle;rounded=0;orthogonalLoop=1;jettySize=auto;html=1;exitX=0.25;exitY=1;exitDx=0;exitDy=0;entryX=0.25;entryY=0;entryDx=0;entryDy=0;" edge="1" parent="1" source="M4ZCVq2ltAWeAlEzBP5C-4" target="M4ZCVq2ltAWeAlEzBP5C-6">
          <mxGeometry relative="1" as="geometry" />
        </mxCell>
        <mxCell id="M4ZCVq2ltAWeAlEzBP5C-11" style="edgeStyle=orthogonalEdgeStyle;rounded=0;orthogonalLoop=1;jettySize=auto;html=1;exitX=0.75;exitY=1;exitDx=0;exitDy=0;entryX=0.75;entryY=0;entryDx=0;entryDy=0;" edge="1" parent="1" source="M4ZCVq2ltAWeAlEzBP5C-4" target="M4ZCVq2ltAWeAlEzBP5C-6">
          <mxGeometry relative="1" as="geometry" />
        </mxCell>
        <mxCell id="M4ZCVq2ltAWeAlEzBP5C-4" value="学生端题库&lt;div&gt;服务&lt;/div&gt;" style="rounded=0;whiteSpace=wrap;html=1;" vertex="1" parent="1">
          <mxGeometry x="1900" y="480" width="120" height="60" as="geometry" />
        </mxCell>
        <mxCell id="M4ZCVq2ltAWeAlEzBP5C-17" style="edgeStyle=orthogonalEdgeStyle;rounded=0;orthogonalLoop=1;jettySize=auto;html=1;exitX=0.25;exitY=1;exitDx=0;exitDy=0;entryX=0.25;entryY=0;entryDx=0;entryDy=0;" edge="1" parent="1" source="M4ZCVq2ltAWeAlEzBP5C-5" target="M4ZCVq2ltAWeAlEzBP5C-13">
          <mxGeometry relative="1" as="geometry" />
        </mxCell>
        <mxCell id="M4ZCVq2ltAWeAlEzBP5C-18" style="edgeStyle=orthogonalEdgeStyle;rounded=0;orthogonalLoop=1;jettySize=auto;html=1;exitX=0.75;exitY=1;exitDx=0;exitDy=0;entryX=0.75;entryY=0;entryDx=0;entryDy=0;" edge="1" parent="1" source="M4ZCVq2ltAWeAlEzBP5C-5" target="M4ZCVq2ltAWeAlEzBP5C-13">
          <mxGeometry relative="1" as="geometry" />
        </mxCell>
        <mxCell id="M4ZCVq2ltAWeAlEzBP5C-5" value="学生端题库&lt;div style=&quot;border-color: var(--border-color);&quot;&gt;服务&lt;/div&gt;" style="rounded=0;whiteSpace=wrap;html=1;" vertex="1" parent="1">
          <mxGeometry x="2790" y="431" width="120" height="60" as="geometry" />
        </mxCell>
        <mxCell id="M4ZCVq2ltAWeAlEzBP5C-6" value="学生端题库&lt;div&gt;&lt;span style=&quot;background-color: initial;&quot;&gt;Mysql&lt;/span&gt;&lt;/div&gt;" style="rounded=0;whiteSpace=wrap;html=1;" vertex="1" parent="1">
          <mxGeometry x="1900" y="609" width="120" height="60" as="geometry" />
        </mxCell>
        <mxCell id="M4ZCVq2ltAWeAlEzBP5C-20" style="edgeStyle=orthogonalEdgeStyle;rounded=0;orthogonalLoop=1;jettySize=auto;html=1;exitX=0.179;exitY=1.091;exitDx=0;exitDy=0;entryX=0.179;entryY=0.007;entryDx=0;entryDy=0;exitPerimeter=0;entryPerimeter=0;" edge="1" parent="1" source="M4ZCVq2ltAWeAlEzBP5C-7" target="M4ZCVq2ltAWeAlEzBP5C-19">
          <mxGeometry relative="1" as="geometry" />
        </mxCell>
        <mxCell id="M4ZCVq2ltAWeAlEzBP5C-32" style="edgeStyle=orthogonalEdgeStyle;rounded=0;orthogonalLoop=1;jettySize=auto;html=1;exitX=0.5;exitY=1;exitDx=0;exitDy=0;entryX=0.5;entryY=0;entryDx=0;entryDy=0;" edge="1" parent="1" source="M4ZCVq2ltAWeAlEzBP5C-7" target="M4ZCVq2ltAWeAlEzBP5C-19">
          <mxGeometry relative="1" as="geometry" />
        </mxCell>
        <mxCell id="M4ZCVq2ltAWeAlEzBP5C-40" value="3.1 判题" style="edgeLabel;html=1;align=center;verticalAlign=middle;resizable=0;points=[];" vertex="1" connectable="0" parent="M4ZCVq2ltAWeAlEzBP5C-32">
          <mxGeometry x="-0.1233" relative="1" as="geometry">
            <mxPoint as="offset" />
          </mxGeometry>
        </mxCell>
        <mxCell id="M4ZCVq2ltAWeAlEzBP5C-7" value="hoj平台" style="rounded=0;whiteSpace=wrap;html=1;" vertex="1" parent="1">
          <mxGeometry x="2090" y="49" width="300" height="60" as="geometry" />
        </mxCell>
        <mxCell id="M4ZCVq2ltAWeAlEzBP5C-24" style="edgeStyle=orthogonalEdgeStyle;rounded=0;orthogonalLoop=1;jettySize=auto;html=1;exitX=0.5;exitY=1;exitDx=0;exitDy=0;entryX=0.75;entryY=0;entryDx=0;entryDy=0;curved=1;" edge="1" parent="1" source="M4ZCVq2ltAWeAlEzBP5C-12" target="M4ZCVq2ltAWeAlEzBP5C-22">
          <mxGeometry relative="1" as="geometry" />
        </mxCell>
        <mxCell id="M4ZCVq2ltAWeAlEzBP5C-12" value="hoj平台" style="rounded=0;whiteSpace=wrap;html=1;" vertex="1" parent="1">
          <mxGeometry x="2980" y="130" width="120" height="60" as="geometry" />
        </mxCell>
        <mxCell id="M4ZCVq2ltAWeAlEzBP5C-13" value="学生端题库&lt;div style=&quot;border-color: var(--border-color);&quot;&gt;&lt;span style=&quot;border-color: var(--border-color); background-color: initial;&quot;&gt;Mysql&lt;/span&gt;&lt;/div&gt;" style="rounded=0;whiteSpace=wrap;html=1;" vertex="1" parent="1">
          <mxGeometry x="2790" y="529" width="120" height="60" as="geometry" />
        </mxCell>
        <mxCell id="M4ZCVq2ltAWeAlEzBP5C-21" style="edgeStyle=orthogonalEdgeStyle;rounded=0;orthogonalLoop=1;jettySize=auto;html=1;exitX=0.25;exitY=1;exitDx=0;exitDy=0;entryX=0.561;entryY=-0.013;entryDx=0;entryDy=0;curved=1;entryPerimeter=0;" edge="1" parent="1" source="M4ZCVq2ltAWeAlEzBP5C-19" target="M4ZCVq2ltAWeAlEzBP5C-4">
          <mxGeometry relative="1" as="geometry" />
        </mxCell>
        <mxCell id="M4ZCVq2ltAWeAlEzBP5C-33" style="edgeStyle=orthogonalEdgeStyle;rounded=0;orthogonalLoop=1;jettySize=auto;html=1;exitX=0.5;exitY=1;exitDx=0;exitDy=0;entryX=0.75;entryY=0;entryDx=0;entryDy=0;curved=1;" edge="1" parent="1" source="M4ZCVq2ltAWeAlEzBP5C-19" target="M4ZCVq2ltAWeAlEzBP5C-4">
          <mxGeometry relative="1" as="geometry">
            <Array as="points">
              <mxPoint x="2220" y="410" />
              <mxPoint x="1990" y="410" />
            </Array>
          </mxGeometry>
        </mxCell>
        <mxCell id="M4ZCVq2ltAWeAlEzBP5C-39" value="&lt;span style=&quot;font-size: 12px; text-wrap: wrap; background-color: rgb(251, 251, 251);&quot;&gt;3.2判题&amp;nbsp;&amp;nbsp;&lt;/span&gt;" style="edgeLabel;html=1;align=center;verticalAlign=middle;resizable=0;points=[];" vertex="1" connectable="0" parent="M4ZCVq2ltAWeAlEzBP5C-33">
          <mxGeometry x="-0.2573" y="-19" relative="1" as="geometry">
            <mxPoint x="-9" y="-31" as="offset" />
          </mxGeometry>
        </mxCell>
        <mxCell id="M4ZCVq2ltAWeAlEzBP5C-19" value="hoj后端&lt;div&gt;服务&lt;/div&gt;" style="rounded=0;whiteSpace=wrap;html=1;" vertex="1" parent="1">
          <mxGeometry x="2090" y="194" width="300" height="60" as="geometry" />
        </mxCell>
        <mxCell id="M4ZCVq2ltAWeAlEzBP5C-25" style="edgeStyle=orthogonalEdgeStyle;rounded=0;orthogonalLoop=1;jettySize=auto;html=1;exitX=0.25;exitY=1;exitDx=0;exitDy=0;entryX=0.25;entryY=0;entryDx=0;entryDy=0;" edge="1" parent="1" source="M4ZCVq2ltAWeAlEzBP5C-22" target="M4ZCVq2ltAWeAlEzBP5C-5">
          <mxGeometry relative="1" as="geometry" />
        </mxCell>
        <mxCell id="M4ZCVq2ltAWeAlEzBP5C-26" style="edgeStyle=orthogonalEdgeStyle;rounded=0;orthogonalLoop=1;jettySize=auto;html=1;exitX=0.75;exitY=1;exitDx=0;exitDy=0;entryX=0.75;entryY=0;entryDx=0;entryDy=0;" edge="1" parent="1" source="M4ZCVq2ltAWeAlEzBP5C-22" target="M4ZCVq2ltAWeAlEzBP5C-5">
          <mxGeometry relative="1" as="geometry" />
        </mxCell>
        <mxCell id="M4ZCVq2ltAWeAlEzBP5C-22" value="hoj后端&lt;div&gt;服务&lt;/div&gt;" style="rounded=0;whiteSpace=wrap;html=1;" vertex="1" parent="1">
          <mxGeometry x="2790" y="310" width="120" height="60" as="geometry" />
        </mxCell>
        <mxCell id="M4ZCVq2ltAWeAlEzBP5C-27" value="1.1 题库配置" style="text;html=1;align=center;verticalAlign=middle;whiteSpace=wrap;rounded=0;" vertex="1" parent="1">
          <mxGeometry x="1660" y="240" width="80" height="30" as="geometry" />
        </mxCell>
        <mxCell id="M4ZCVq2ltAWeAlEzBP5C-28" value="1.2 题库配置" style="text;html=1;align=center;verticalAlign=middle;whiteSpace=wrap;rounded=0;" vertex="1" parent="1">
          <mxGeometry x="1840" y="560" width="80" height="30" as="geometry" />
        </mxCell>
        <mxCell id="M4ZCVq2ltAWeAlEzBP5C-29" value="2.1 拉取题目信息" style="text;html=1;align=center;verticalAlign=middle;whiteSpace=wrap;rounded=0;" vertex="1" parent="1">
          <mxGeometry x="2080" y="144" width="60" height="30" as="geometry" />
        </mxCell>
        <mxCell id="M4ZCVq2ltAWeAlEzBP5C-30" value="2.2 获取题目信息，兼容hoj数据" style="text;html=1;align=center;verticalAlign=middle;whiteSpace=wrap;rounded=0;" vertex="1" parent="1">
          <mxGeometry x="2050" y="299" width="60" height="30" as="geometry" />
        </mxCell>
        <mxCell id="M4ZCVq2ltAWeAlEzBP5C-44" value="" style="endArrow=none;dashed=1;html=1;dashPattern=1 3;strokeWidth=2;rounded=0;entryX=0.75;entryY=1;entryDx=0;entryDy=0;" edge="1" parent="1" target="M4ZCVq2ltAWeAlEzBP5C-7">
          <mxGeometry width="50" height="50" relative="1" as="geometry">
            <mxPoint x="2315" y="190" as="sourcePoint" />
            <mxPoint x="2340" y="120" as="targetPoint" />
          </mxGeometry>
        </mxCell>
        <mxCell id="M4ZCVq2ltAWeAlEzBP5C-45" value="4.1获取题解" style="edgeLabel;html=1;align=center;verticalAlign=middle;resizable=0;points=[];" vertex="1" connectable="0" parent="M4ZCVq2ltAWeAlEzBP5C-44">
          <mxGeometry x="-0.3473" y="-1" relative="1" as="geometry">
            <mxPoint as="offset" />
          </mxGeometry>
        </mxCell>
        <mxCell id="M4ZCVq2ltAWeAlEzBP5C-47" value="" style="endArrow=none;dashed=1;html=1;rounded=0;entryX=0.75;entryY=1;entryDx=0;entryDy=0;exitX=1;exitY=0;exitDx=0;exitDy=0;edgeStyle=orthogonalEdgeStyle;curved=1;" edge="1" parent="1" source="M4ZCVq2ltAWeAlEzBP5C-4" target="M4ZCVq2ltAWeAlEzBP5C-19">
          <mxGeometry width="50" height="50" relative="1" as="geometry">
            <mxPoint x="2390" y="395" as="sourcePoint" />
            <mxPoint x="2440" y="345" as="targetPoint" />
            <Array as="points">
              <mxPoint x="2020" y="440" />
              <mxPoint x="2315" y="440" />
            </Array>
          </mxGeometry>
        </mxCell>
        <mxCell id="M4ZCVq2ltAWeAlEzBP5C-49" value="4.2 获取题解" style="edgeLabel;html=1;align=center;verticalAlign=middle;resizable=0;points=[];" vertex="1" connectable="0" parent="M4ZCVq2ltAWeAlEzBP5C-47">
          <mxGeometry x="-0.0339" y="10" relative="1" as="geometry">
            <mxPoint as="offset" />
          </mxGeometry>
        </mxCell>
      </root>
    </mxGraphModel>
  </diagram>
</mxfile>
